<svg id="visual" viewBox="0 0 900 600" width="900" height="600" xmlns="http://www.w3.org/2000/svg" xmlns:xlink="http://www.w3.org/1999/xlink" version="1.1"><path d="M0 19L25 22C50 25 100 31 150 32C200 33 250 29 300 31C350 33 400 41 450 44C500 47 550 45 600 40C650 35 700 27 750 29C800 31 850 43 875 49L900 55L900 0L875 0C850 0 800 0 750 0C700 0 650 0 600 0C550 0 500 0 450 0C400 0 350 0 300 0C250 0 200 0 150 0C100 0 50 0 25 0L0 0Z" fill="#0d2368"></path><path d="M0 67L25 68C50 69 100 71 150 75C200 79 250 85 300 84C350 83 400 75 450 71C500 67 550 67 600 70C650 73 700 79 750 81C800 83 850 81 875 80L900 79L900 53L875 47C850 41 800 29 750 27C700 25 650 33 600 38C550 43 500 45 450 42C400 39 350 31 300 29C250 27 200 31 150 30C100 29 50 23 25 20L0 17Z" fill="#392370"></path><path d="M0 127L25 125C50 123 100 119 150 120C200 121 250 127 300 125C350 123 400 113 450 109C500 105 550 107 600 111C650 115 700 121 750 123C800 125 850 123 875 122L900 121L900 77L875 78C850 79 800 81 750 79C700 77 650 71 600 68C550 65 500 65 450 69C400 73 350 81 300 82C250 83 200 77 150 73C100 69 50 67 25 66L0 65Z" fill="#582175"></path><path d="M0 151L25 150C50 149 100 147 150 148C200 149 250 153 300 152C350 151 400 145 450 140C500 135 550 131 600 131C650 131 700 135 750 138C800 141 850 143 875 144L900 145L900 119L875 120C850 121 800 123 750 121C700 119 650 113 600 109C550 105 500 103 450 107C400 111 350 121 300 123C250 125 200 119 150 118C100 117 50 121 25 123L0 125Z" fill="#751c76"></path><path d="M0 313L25 315C50 317 100 321 150 309C200 297 250 269 300 249C350 229 400 217 450 232C500 247 550 289 600 295C650 301 700 271 750 254C800 237 850 233 875 231L900 229L900 143L875 142C850 141 800 139 750 136C700 133 650 129 600 129C550 129 500 133 450 138C400 143 350 149 300 150C250 151 200 147 150 146C100 145 50 147 25 148L0 149Z" fill="#911374"></path><path d="M0 361L25 363C50 365 100 369 150 357C200 345 250 317 300 297C350 277 400 265 450 277C500 289 550 325 600 327C650 329 700 297 750 282C800 267 850 269 875 270L900 271L900 227L875 229C850 231 800 235 750 252C700 269 650 299 600 293C550 287 500 245 450 230C400 215 350 227 300 247C250 267 200 295 150 307C100 319 50 315 25 313L0 311Z" fill="#aa056f"></path><path d="M0 397L25 397C50 397 100 397 150 384C200 371 250 345 300 326C350 307 400 295 450 305C500 315 550 347 600 347C650 347 700 315 750 302C800 289 850 295 875 298L900 301L900 269L875 268C850 267 800 265 750 280C700 295 650 327 600 325C550 323 500 287 450 275C400 263 350 275 300 295C250 315 200 343 150 355C100 367 50 363 25 361L0 359Z" fill="#c10066"></path><path d="M0 409L25 409C50 409 100 409 150 396C200 383 250 357 300 340C350 323 400 315 450 327C500 339 550 371 600 370C650 369 700 335 750 323C800 311 850 321 875 326L900 331L900 299L875 296C850 293 800 287 750 300C700 313 650 345 600 345C550 345 500 313 450 303C400 293 350 305 300 324C250 343 200 369 150 382C100 395 50 395 25 395L0 395Z" fill="#d5005b"></path><path d="M0 487L25 484C50 481 100 475 150 461C200 447 250 425 300 414C350 403 400 403 450 412C500 421 550 439 600 435C650 431 700 405 750 399C800 393 850 407 875 414L900 421L900 329L875 324C850 319 800 309 750 321C700 333 650 367 600 368C550 369 500 337 450 325C400 313 350 321 300 338C250 355 200 381 150 394C100 407 50 407 25 407L0 407Z" fill="#e6144d"></path><path d="M0 505L25 506C50 507 100 509 150 497C200 485 250 459 300 448C350 437 400 441 450 452C500 463 550 481 600 478C650 475 700 451 750 444C800 437 850 447 875 452L900 457L900 419L875 412C850 405 800 391 750 397C700 403 650 429 600 433C550 437 500 419 450 410C400 401 350 401 300 412C250 423 200 445 150 459C100 473 50 479 25 482L0 485Z" fill="#f22d3d"></path><path d="M0 565L25 569C50 573 100 581 150 583C200 585 250 581 300 577C350 573 400 569 450 568C500 567 550 569 600 569C650 569 700 567 750 569C800 571 850 577 875 580L900 583L900 455L875 450C850 445 800 435 750 442C700 449 650 473 600 476C550 479 500 461 450 450C400 439 350 435 300 446C250 457 200 483 150 495C100 507 50 505 25 504L0 503Z" fill="#fb4528"></path><path d="M0 601L25 601C50 601 100 601 150 601C200 601 250 601 300 601C350 601 400 601 450 601C500 601 550 601 600 601C650 601 700 601 750 601C800 601 850 601 875 601L900 601L900 581L875 578C850 575 800 569 750 567C700 565 650 567 600 567C550 567 500 565 450 566C400 567 350 571 300 575C250 579 200 583 150 581C100 579 50 571 25 567L0 563Z" fill="#ff5d00"></path></svg>